<svg id="Layer_9" data-name="Layer 9" xmlns="http://www.w3.org/2000/svg" viewBox="0 0 2000 2000"><defs><style>.cls-1{fill:#231f20;stroke:#231f20;stroke-miterlimit:10;}</style></defs><title>clouds</title><path class="cls-1" d="M723.19,850.82c32-117.38,139.47-199.41,261.14-199.41s229.09,82,261.13,199.41c57-24,121.22-12.39,161.43,28.48,46.09,46.86,39,110.33,38,118.7,72.72,5.65,133.81,55.73,151.93,123.44,20.2,75.48-17,157.85-90.21,194.67l-109.2-4.75c-10.26,10.52-48.52,47.21-109.2,52.23-81.76,6.75-135.68-49.66-142.44-57-8.3,10.15-59.09,70.13-147.18,76-84.81,5.62-141.65-43.09-151.93-52.23-11.51,9.08-65.27,49.47-142.44,42.73-72.82-6.36-117.39-50.41-128.19-61.72-96,41.84-200.91-13.15-223.15-95-22.07-81.2,39.44-181,142.44-194.66-.28-7.45-2.07-93.56,66.47-142.44,40.61-29,84-29.18,99.7-28.48Z"/></svg>