<svg id="Layer_9" data-name="Layer 9" xmlns="http://www.w3.org/2000/svg" viewBox="0 0 2000 2000"><defs><style>.cls-1{fill:#231f20;stroke:#231f20;stroke-miterlimit:10;}</style></defs><title>clouds</title><path class="cls-1" d="M630.83,855.56c45.54-120,159.36-196.38,275.38-189.91,141.52,7.88,263.64,137.75,261.13,299.11,66.73-40.69,149.17-40.71,208.9,0,75.34,51.35,103,159.61,57,251.64,68.25-32.16,148.08-20.39,199.41,28.49,60.8,57.89,70.82,157.54,19,232.64l-1149,4.75c-97.22-.78-173.43-76.41-175.67-161.42-1.84-69.47,45.94-136.27,118.69-161.43C403,1100.3,395.49,1023.3,426.67,960,462.94,886.41,545.57,843.56,630.83,855.56Z"/></svg>