<svg id="outline" xmlns="http://www.w3.org/2000/svg" viewBox="0 0 2000 2000"><defs><style>.cls-1{fill:none;stroke:#231f20;stroke-miterlimit:10;stroke-width:20px;}</style></defs><title>CS380Final</title><polygon class="cls-1" points="974.01 376.97 919.43 286.69 822.86 362.27 776.67 437.85 751.48 509.23 751.48 599.5 766.18 672.98 776.67 702.37 701.1 651.99 631.82 620.5 541.54 605.8 468.06 612.1 392.49 639.39 325.31 689.78 390.39 775.85 279.12 803.14 316.91 908.11 384.09 1000 486.96 1065.56 581.43 1078.16 669.61 1078.16 694.8 1078.16 617.12 1132.74 552.04 1204.12 507.95 1286 491.16 1380.47 505.85 1481.24 522.65 1540.02 626.57 1502.23 626.57 1607.2 732.59 1607.2 827.06 1556.82 917.33 1491.74 955.12 1414.06 974.01 1351.08 1024.4 1456.05 1066.39 1514.83 1160.86 1571.51 1221.74 1594.61 1312.01 1607.2 1330.91 1607.2 1330.91 1502.23 1431.68 1540.02 1454.77 1472.84 1465.27 1384.67 1452.67 1294.4 1425.38 1229.32 1379.19 1160.04 1326.71 1120.15 1263.73 1078.16 1391.79 1078.16 1484.16 1050.87 1547.14 1017.28 1595.43 973.19 1647.91 887.12 1673.11 803.14 1566.04 777.95 1631.12 681.38 1513.55 622.6 1433.78 610 1347.7 614.2 1276.33 639.39 1202.85 689.78 1179.75 706.57 1207.05 626.79 1204.95 547.02 1194.45 481.94 1165.06 408.46 1120.97 355.98 1064.29 307.69 1035.45 286.69 974.01 376.97"/></svg>