<svg id="outline" xmlns="http://www.w3.org/2000/svg" viewBox="0 0 2000 2000"><defs><style>.cls-1{fill:none;stroke:#231f20;stroke-miterlimit:10;stroke-width:35px;}</style></defs><title>CS380Final</title><path class="cls-1" d="M497.4,667.23c27.88-191.38,278-389.09,537-398.55,274.68-10,530.15,187.57,583.68,398.8,5.2,20.52,11.82,58.79,10.56,134.7-4.89,294.77-5.44,501.38-16.8,567.64-35.38,206.39-269.59,382-543.11,391.07S567.53,1604.11,500.28,1405.4c0,0-12.6-23.74-12.55-122.54C488,760,486.36,743.06,497.4,667.23Z"/><path class="cls-1" d="M654.5,419.46h798.81"/><line class="cls-1" x1="955.19" y1="349.12" x2="1157.64" y2="349.12"/><path class="cls-1" d="M1517.61,742.84c1.29,23.07,3.05,57.42,4.5,99.06,8.88,255,.46,379.23-13.66,461.59-28.77,167.82-219.23,310.67-441.64,318S659.22,1494,604.53,1332.42c0,0-2.56-4.83-4.6-78.58-1.93-69.82-15.29-238.43-1.48-492.11.84-15.35,1.2-23,1.52-26.13,11.89-118.48,106-194.38,141.49-223.42,69.74-57,142.69-81.5,191.67-92.72"/><path class="cls-1" d="M1518.39,745.94c-10.6-42.11-34.43-111.4-91.48-177.25C1316.26,441,1164.42,422.89,1126.19,419.46"/></svg>