<svg id="outline" xmlns="http://www.w3.org/2000/svg" viewBox="0 0 2000 2000"><defs><style>.cls-1{fill:none;stroke:#231f20;stroke-miterlimit:10;stroke-width:35px;}</style></defs><title>CS380Final</title><path class="cls-1" d="M402.86,922.2C424.8,664.15,638.32,444.92,903.63,425.53c294.1-21.5,561.21,209.18,582.87,504.88,22.9,312.6-236.12,593.89-554.13,587C616.6,1510.5,377.34,1222.4,402.86,922.2Z"/><path class="cls-1" d="M685.88,947.61C696.35,824.41,798.3,719.74,925,710.48c140.42-10.26,267.94,99.87,278.28,241,10.94,149.25-112.73,283.54-264.56,280.24C787.93,1228.48,673.69,1090.93,685.88,947.61Z"/><path class="cls-1" d="M780,956.05c6.66-78.36,71.5-144.94,152.08-150.83,89.31-6.53,170.43,63.53,177,153.33,7,94.93-71.71,180.36-168.29,178.26C844.89,1134.72,772.22,1047.22,780,956.05Z"/><path class="cls-1" d="M917,968.36a27.55,27.55,0,0,1,54.94.41c1.17,15.83-12,30.08-28.09,29.73S915.7,983.56,917,968.36Z"/><path class="cls-1" d="M942.39,524.13C1145,522.41,1324.48,657.78,1378,851.92c54.34,197.13-34,408.4-213.5,508.94"/><path class="cls-1" d="M938.08,1414.78a365.06,365.06,0,0,0,138-17.25"/></svg>