<svg id="Layer_17" data-name="Layer 17" xmlns="http://www.w3.org/2000/svg" viewBox="0 0 563.2 708.91"><defs><style>.cls-1{fill:#cae5c4;}.cls-2{fill:#addacc;}.cls-3{fill:#607d74;}</style></defs><title>dots</title><polygon class="cls-1" points="308.88 415.42 289.52 427.26 283.07 452 295.98 472.44 318.56 467.06 318.56 443.93 308.88 415.42"/><polygon class="cls-1" points="288.27 321.64 278.18 341.83 283.07 360.89 291.12 368.13 304.19 355.6 304.19 344.89 296.56 325.09 288.27 321.64"/><polygon class="cls-1" points="291.18 211.74 283.07 230.51 283.07 251 291.18 254.41 300.82 243.32 300.82 224.54 291.18 211.74"/><polygon class="cls-1" points="300.82 534.4 283.07 549.93 283.07 565.19 291.18 583 300.82 583 318.56 575.37 315.38 555.65 310.93 541.03 300.82 534.4"/><polygon class="cls-1" points="296.94 649.77 283.07 663.76 278.18 680.92 287.56 700.64 304.19 708.9 318.56 687.28 318.56 677.32 318.56 663.76 307.12 654.22 296.94 649.77"/><polygon class="cls-1" points="389.77 148.11 389.77 174.59 396.8 193.5 414.63 197.82 423.28 181.07 413.01 161.08 401.66 152.97 389.77 148.11"/><polygon class="cls-1" points="414.85 254.41 414.85 278.45 423.28 293.73 435.94 293.73 443.94 286.45 443.94 274.07 433.76 260.27 423.28 250.09 414.85 254.41"/><polygon class="cls-1" points="429.4 363.63 429.4 409.48 443.94 415.42 456.71 402.69 456.71 382.31 429.4 363.63"/><polygon class="cls-1" points="434.63 488.45 434.63 508.83 443.05 528.36 452.46 539.4 466.89 534.4 466.89 513.93 456.71 496.1 434.63 488.45"/><polygon class="cls-1" points="450.76 597.99 438.02 613.41 438.02 632.81 443.05 662.53 453.31 662.53 466.89 644.7 475.39 623.47 471.14 605.63 450.76 597.99"/><polygon class="cls-1" points="123.17 461.57 110.08 481.71 110.08 507.89 116.62 517.97 129.21 499.84 135.25 478.69 135.25 465.6 123.17 461.57"/><polygon class="cls-1" points="135.25 351.81 131.22 374.97 131.22 389.53 139.28 399.14 146.33 385.04 152.37 356.84 135.25 351.81"/><polygon class="cls-1" points="163.45 250.09 152.37 267.22 157.91 282.32 170.5 271.91 170.5 259.16 163.45 250.09"/><polygon class="cls-1" points="101.01 583 92.96 613.41 92.96 630.26 110.08 630.26 110.08 613.41 118.13 590.47 101.01 583"/><polygon class="cls-2" points="19.03 543.82 0 565.89 3.81 597.99 9.52 606.63 19.03 543.82"/><polygon class="cls-2" points="39.58 447.15 12.94 472.44 9.52 492.82 19.03 513.93 31.97 508.8 39.58 480.54 39.58 447.15"/><polygon class="cls-2" points="68.51 316.22 39.58 342.1 36.54 368.13 43.39 389.53 52.52 385.49 68.51 338.29 68.51 316.22"/><polygon class="cls-2" points="112.66 172.97 92.96 186.81 81.45 204.32 87.54 222.59 97.05 229.44 112.66 172.97"/><polygon class="cls-3" points="503.54 166.35 515.23 216.33 528.86 201.21 528.86 187.77 521.72 176.09 503.54 166.35"/><polygon class="cls-3" points="516.2 276.7 522.37 333.18 541.84 321.64 541.84 300.72 536 287.09 516.2 276.7"/><polygon class="cls-3" points="528.86 399.14 528.86 443.93 541.84 428.61 541.84 409.21 541.84 399.14 528.86 399.14"/><polygon class="cls-3" points="528.86 507.98 529.02 568.83 550.85 544.14 550.85 528.26 541.84 513.93 528.86 507.98"/><polygon class="cls-3" points="535.35 630.26 535.35 693.18 550.85 679.34 563.2 662.53 557.03 644.68 549.27 633.21 535.35 630.26"/><polygon class="cls-2" points="135.25 121.7 166.34 83.78 150.79 80.25 135.25 97.01 135.25 121.7"/><polygon class="cls-2" points="198.97 37.92 236.01 7.94 217.49 0 198.97 7.94 191.03 24.69 191.03 43.21 198.97 37.92"/></svg>