<svg id="outline" xmlns="http://www.w3.org/2000/svg" viewBox="0 0 2000 2000"><defs><style>.cls-1{fill:none;stroke:#231f20;stroke-miterlimit:10;stroke-width:30px;}</style></defs><title>CS380Final</title><path class="cls-1" d="M504.79,625.34c1.44-16.86,15.41-31.19,32.77-32.46,19.25-1.4,36.73,13.67,38.15,33,1.49,20.43-15.46,38.81-36.27,38.36S503.12,645,504.79,625.34Z"/><path class="cls-1" d="M449.46,620.86c3.46-40.65,37.14-75.19,79-78.24,46.39-3.39,88.52,33,91.94,79.53C624,671.4,583.14,715.71,533,714.62,483.17,713.54,445.43,668.15,449.46,620.86Z"/><path class="cls-1" d="M568.52,719.69a471.34,471.34,0,0,1-5.22,131.73c-13.95,75.89-39.74,108-52.28,156.81-13.24,51.54-13.44,128.44,46.56,237.84"/><path class="cls-1" d="M523.71,1269.89l-20.83-23.82c-60-109.4-59.79-186.3-46.56-237.84,12.55-48.82,38.33-80.92,52.28-156.81a471.34,471.34,0,0,0,5.22-131.73"/><polygon class="cls-1" points="510.92 1285.01 581.84 1246.07 602.77 1255.94 671.36 1403.6 671.36 1436.15 620.61 1460.56 591.14 1455.91 516.73 1310.59 510.92 1285.01"/><line class="cls-1" x1="496.98" y1="510.84" x2="503.86" y2="542.4"/><line class="cls-1" x1="540.23" y1="499.04" x2="547.12" y2="542.4"/><polygon class="cls-1" points="439.47 394.34 449.17 484.12 467.49 510.83 575.8 499.04 598.73 465.12 586.94 378.12 558.92 351.57 466.01 361.89 439.47 394.34"/><line class="cls-1" x1="449.17" y1="463.65" x2="585.46" y2="444.48"/><polyline class="cls-1" points="439.47 641.84 376.53 641.84 376.53 1080.23 439.47 1080.23"/><line class="cls-1" x1="620.61" y1="641.84" x2="695.25" y2="641.84"/><line class="cls-1" x1="504.67" y1="1080.23" x2="627.04" y2="1080.23"/><line class="cls-1" x1="382.23" y1="902.49" x2="486.44" y2="903.14"/><line class="cls-1" x1="547.12" y1="902.49" x2="612.54" y2="902.49"/></svg>