<svg id="Layer_4" data-name="Layer 4" xmlns="http://www.w3.org/2000/svg" viewBox="0 0 2000 2000"><defs><style>.cls-1{fill:#231f20;}</style></defs><title>pinkshapes</title><path class="cls-1" d="M1092.78,392c-48.11,6.45-187.71,31.51-308.93,148.91C754.61,569.21,630.16,696.15,619.38,901c-9.67,183.78,78.39,313,106.69,351.15,15,20.31,124.23,163.15,315.59,206.7,6.88,1.56,70.55,18.75,73.35,11.11s-57.72-32.75-106.68-60c-31.91-17.75-187.12-104.14-264.48-268.92C695,1037,696.26,942.35,697.17,901c1.22-55.24,7.07-212.7,126.69-348.94C921.89,440.35,1042.75,404,1092.78,392Z"/><path class="cls-1" d="M1157,776c-17.56,2-49-1.37-93.25,34.94-10.67,8.76-56.1,48-60,111.38-3.53,56.85,18,99.55,28.35,111.35,5.5,6.28,34.66,44.65,104.52,58.12,2.52.49,58-3.88,59-6.25s-32,2.65-49.93-5.78c-11.64-5.49-68.31-32.22-96.55-83.19-17.82-32.16-17.37-61.44-17-74.25.45-17.09-.94-57.5,42.73-99.64C1110.59,788.15,1138.7,779.73,1157,776Z"/></svg>