<svg id="Layer_15" data-name="Layer 15" xmlns="http://www.w3.org/2000/svg" viewBox="0 0 530.01 769.49"><defs><style>.cls-1{fill:#1c8960;}.cls-2{fill:#466a4a;}</style></defs><title>plant-fill</title><path class="cls-1" d="M787.41,980.36l213.53,119.75L1317.42,1051,1291.9,595.62s27.48-214-188.45-265c-78.52,13.74-80.48,0-80.48,0S930.71,340.43,860,591.69C805.08,858.66,787.41,980.36,787.41,980.36Z" transform="translate(-787.41 -330.62)"/><path class="cls-2" d="M1011.94,1092.69l132.5-8.65s0-643.75-41.77-741.68l-28.8-4.32S1035.77,438.3,1027,502.39C1021.2,598.53,1008.51,864.35,1011.94,1092.69Z" transform="translate(-787.41 -330.62)"/><path class="cls-2" d="M1176.48,1071l91.51-14.08-8.8-353.71s-15.84-256.9-139-365.14c0,0,35.19,136.37,42.23,256S1176.48,1071,1176.48,1071Z" transform="translate(-787.41 -330.62)"/><path class="cls-2" d="M836.84,1013.25,940.67,1071l10.56-286.84s28.15-295.65,103.83-438.19l-35.2-3.52s-79.19,86.23-126.7,269.25C859.72,835.16,872,714.44,836.84,1013.25Z" transform="translate(-787.41 -330.62)"/></svg>