<svg id="Layer_16" data-name="Layer 16" xmlns="http://www.w3.org/2000/svg" viewBox="0 0 551.47 789.27"><defs><style>.cls-1{fill:none;stroke:#405441;stroke-miterlimit:10;stroke-width:20px;}</style></defs><title>plant-outline</title><path class="cls-1" d="M1099.4,324.1s60.83,34,107.46,146.25,49.79,206,49.79,206L1268,1056.89l25.15-6.37,24.28-39.39s-19.79-196.07-20.57-327.26-4.61-91.6-22.06-212.27c-38.27-115-162.91-147.5-162.91-147.5l-48.82,11.95L1000,330.62c-90.75,59-86.79,118.43-86.79,118.43L855.54,613.64,787.41,964.81l153.91,88.63,13.5-301.69,54.73-286.53,53.51-129.17" transform="translate(-776.24 -313.78)"/><polyline class="cls-1" points="165.08 739.65 235.71 778.9 491.75 743.11"/><path class="cls-1" d="M1092.7,332.4s39.87,163.22,45,372.1,6.71,366.47,6.71,366.47" transform="translate(-776.24 -313.78)"/></svg>