<svg id="Layer_13" data-name="Layer 13" xmlns="http://www.w3.org/2000/svg" viewBox="0 0 1027.77 817.86"><defs><style>.cls-1{fill:#7a9fc1;}.cls-2{fill:#2b99c2;}.cls-3{fill:#44c3e9;}.cls-4{fill:#239bcc;}.cls-5{fill:#b2d5d7;}.cls-6{fill:#42c2ea;}.cls-7{fill:#42c2e5;}.cls-8{fill:#c8ded2;}.cls-9{fill:#94afd0;}.cls-10{fill:#18304b;}</style></defs><title>pot-fill</title><polygon class="cls-1" points="287.04 9.76 262.79 61.07 535.13 206.91 206.2 439.18 165.78 439.18 165.78 258.23 146.92 158.3 241.23 9.76 287.04 9.76"/><polygon class="cls-2" points="147.59 146.92 0 360.39 73.8 584.41 168.67 434.19 168.67 257.61 147.59 146.92"/><path class="cls-3" d="M1010.38,1097.75l168.64,145-295.64-39.47Z" transform="translate(-472.09 -901.87)"/><polygon class="cls-4" points="542.24 195.88 689.83 322.38 805.79 177.43 542.24 195.88"/><path class="cls-5" d="M685.25,1335.31l198.13-132L1179,1242.74l98.86,226.62-131.77,229.29-335.95,21.08q-69.45-183.06-138.89-366.14Z" transform="translate(-472.09 -901.87)"/><polygon class="cls-6" points="171.66 439.18 196.02 442.98 323.63 812.85 98.32 688.23 76.79 589.4 171.66 439.18"/><polygon class="cls-7" points="806.88 177.43 833.51 159.53 961.66 301.3 1027.77 441.4 930.23 631.07 806.88 567.49 690.91 322.38 806.88 177.43"/><polygon class="cls-8" points="845.69 177.43 965.99 301.3 965.99 132.5 856.53 159.6 845.69 177.43"/><polygon class="cls-9" points="806.88 570.55 674.01 799.85 923.72 647.14 806.88 570.55"/><polygon class="cls-10" points="872.16 92.53 821.96 162.65 974.56 121.4 945.72 92.53 872.16 92.53"/><polygon class="cls-10" points="241.23 9.76 315.32 0 306.11 73.65 262.79 61.07 241.23 9.76"/></svg>