<svg id="Layer_14" data-name="Layer 14" xmlns="http://www.w3.org/2000/svg" viewBox="0 0 1048.72 853.86"><defs><style>.cls-1,.cls-2,.cls-3,.cls-4{fill:none;stroke-miterlimit:10;stroke-width:20px;}.cls-1{stroke:#2e586f;}.cls-2{stroke:#23495d;}.cls-3{stroke:#173739;}.cls-4{stroke:#2e2534;}</style></defs><title>pot-outline</title><polyline class="cls-1" points="713.69 338.44 564.92 207.16 436.16 302.36"/><polyline class="cls-2" points="155.89 161.57 176.95 272.8 176.95 439.2 95.37 598.41 113.17 692.94 334.44 834.02 324.05 749.38 211.3 461.72 208.22 453.86 177.6 451.06"/><polyline class="cls-3" points="211.3 461.72 423.4 311.4 719.04 350.87"/><polyline class="cls-3" points="334.44 834.02 683.28 814.85 819.71 566.92"/><line class="cls-4" x1="932.81" y1="650.09" x2="667.94" y2="815.69"/><line class="cls-4" x1="977.24" y1="135.17" x2="976.64" y2="310.44"/><polyline class="cls-4" points="265.08 10 11.34 369.13 76.24 526.75 95.37 598.41"/><polyline class="cls-1" points="334.44 10 265.08 10 265.08 55.32 385.93 133.01 552.1 208.54 813.23 180.49 890.91 150.27 977.24 135.17 949.18 96.32 888.76 96.32 841.11 162.21 838.88 165.3 713.69 338.44 808.64 558.78 932.81 650.09 1038.72 460.18 1038.72 428.53 976.64 310.44 833.16 158.65"/></svg>