<svg xmlns="http://www.w3.org/2000/svg" viewBox="0 0 2000 2000"><defs><style>.cls-1{fill:#c3e5da;}.cls-2{fill:#abb1d9;}.cls-3{fill:#6f9595;}.cls-4{fill:#fff;}.cls-5{fill:none;stroke:#6e4c5d;stroke-miterlimit:10;stroke-width:20px;}</style></defs><title>seat</title><g id="Layer_10" data-name="Layer 10"><polygon class="cls-1" points="1377.2 192.56 1377.2 347.33 1436.73 469.37 1424.82 573.54 1296.89 1000 1323.62 1020.01 1343.53 1053.54 1394.52 921.75 1449.07 902.05 1545.61 821.03 1611.08 476.05 1613.59 153.73 1484.35 127.07 1377.2 192.56"/><polygon class="cls-2" points="647.97 1000 606.3 1115.26 826.18 1133.37 975.38 1100.38 1097.41 1088.47 1136.11 1118.23 1290.88 1109.3 1341.48 1136.09 1317.68 1272.8 1290.88 1341.47 1290.88 1375.01 1331.57 1375.01 1380.18 1223.92 1367.92 1094.61 1323.62 1020.01 647.97 1000"/><polygon class="cls-1" points="576.93 1225.42 548 1257.64 1150.99 1267.06 1195.64 1237.29 1149.61 1225.42 576.93 1225.42"/><polygon class="cls-2" points="548 1363.39 548 1400.14 657.52 1489.2 820.09 1578.26 1023.65 1586.74 1157.94 1537.26 1230.04 1455.17 915.22 1375.01 548 1363.39"/><polygon class="cls-3" points="1394.52 921.75 1343.53 1053.54 1387.14 1115.2 1449.07 902.05 1394.52 921.75"/><polygon class="cls-3" points="548 1257.64 1150.99 1267.06 1195.64 1237.29 1241.71 1165.51 1241.71 1123.03 1290.88 1109.3 1341.48 1136.09 1343.53 1216.46 1290.88 1341.47 528.91 1323.61 525.11 1295.39 548 1257.64"/><polygon class="cls-4" points="528.91 1323.61 548 1363.39 1000 1396.6 1230.04 1455.17 1212.57 1475.06 1290.88 1479.3 1290.88 1427 1317.68 1375.01 1281.08 1375.01 1266.22 1341.08 528.91 1323.61"/></g><g id="Layer_11" data-name="Layer 11"><polyline class="cls-5" points="1290.88 1020.01 1433.75 543.78 1436.73 469.37 1424.82 436.63 1377.2 347.33 1377.2 261.01 1377.2 192.56 1484.35 127.07 1573.65 138.98 1613.59 153.73 1623.66 224.24 1611.08 476.05 1568.27 483.6 1492.72 823.54"/><polyline class="cls-5" points="1241.71 1115.2 1241.71 1165.51 1204.94 1240.97 1150.99 1267.06 548 1257.64"/><polyline class="cls-5" points="1343.53 1053.54 1394.52 921.75 1433.38 907.72 1457.27 899.09 1545.61 821.03 1611.08 476.05"/><polyline class="cls-5" points="1258.54 1341.47 1290.88 1375.01 1331.57 1375.01 1380.18 1223.92 1380.18 1115.26 1375.77 1107.83 1323.62 1020.01 868.23 1000 647.97 1000 606.3 1115.26 859.3 1136.09 975.38 1100.38 1097.41 1088.47 1136.11 1118.23 1290.88 1109.3 1341.48 1136.09 1338.51 1219.43 1290.88 1341.47 528.91 1323.61 528.91 1284.91 570.58 1225.39 1162.89 1228.36 1195.64 1237.29"/><line class="cls-5" x1="1449.07" y1="902.05" x2="1380.18" y2="1123.03"/><polyline class="cls-5" points="528.91 1323.61 548 1400.14 657.52 1489.2 820.09 1578.26 1023.65 1586.74 1157.94 1537.26 1230.04 1455.17 1000 1402.97 865.32 1375.01 548 1363.39"/><polyline class="cls-5" points="1317.68 1384.59 1290.88 1427 1114.12 1384.59 851.19 1375.01"/><polyline class="cls-5" points="1213.93 1473.51 1290.88 1479.3 1290.88 1427"/><polyline class="cls-5" points="708.19 1516.96 715.48 1671.56 688.62 1787.47 647.63 1787.47 647.63 1903.39 738.1 1903.39 738.1 1838.36 738.1 1822.81 820.09 1578.26"/><polyline class="cls-5" points="1114.12 1561.29 1170.66 1674.38 1131.08 1766.27 1077.37 1803.02 752.23 1803.02"/><polyline class="cls-5" points="1170.66 1528.78 1213.93 1682.16 1163.6 1795.95 1091.5 1842.6 738.1 1838.36"/><line class="cls-5" x1="826.18" y1="1595.54" x2="1131.08" y2="1766.27"/><polyline class="cls-5" points="1163.6 1795.95 1275.88 1878.54 1357.14 1878.54 1205.84 1728.63"/><line class="cls-5" x1="1023.65" y1="1586.74" x2="1170.66" y2="1674.38"/></g></svg>