<svg xmlns="http://www.w3.org/2000/svg" viewBox="0 0 2000 2000"><defs><style>.cls-1{fill:#231f20;}</style></defs><title>shadow</title><g id="shadow"><path class="cls-1" d="M976.23,376.45l59.22-90.85s153,84.79,169.2,250.35-43.06,189.39-43.06,189.39S1040.83,832.73,976.23,990.21Z"/><path class="cls-1" d="M322.17,692.34l67.46,83,586.6,214.85S822.92,645.64,605,614.5,322.17,692.34,322.17,692.34Z"/><path class="cls-1" d="M976.23,990.21,1565,780.55l109,19s-20.76,307.9-407.34,282C1209.51,1042.6,1202.18,1013.07,976.23,990.21Z"/><path class="cls-1" d="M1342.08,1607.41l-6.78-106.76L982.18,985.32s-75,369.6,84.4,521.41S1342.08,1607.41,1342.08,1607.41Z"/><path class="cls-1" d="M977.88,985.32l-349,518.41-99,49.45s-166.23-260,160.16-468.8C759.11,1081.77,782.55,1101.18,977.88,985.32Z"/></g></svg>