<svg id="Layer_17" data-name="Layer 17" xmlns="http://www.w3.org/2000/svg" viewBox="0 0 2000 2000"><defs><style>.cls-1{fill:#b1d1e1;}</style></defs><title>water</title><path class="cls-1" d="M1014.79,182.54q-10,36.09-20,72.18,6.72,36.53,13.43,73L1033.52,341l22.06-50.64,5.53-56.55Z"/><polygon class="cls-1" points="814.86 358.44 793.88 406.37 798.66 475.19 838.01 501.33 847.71 442.2 847.71 407 814.86 358.44"/><polygon class="cls-1" points="1108.87 387.3 1093.43 498.68 1121.22 531.81 1136.66 481.94 1108.87 387.3"/><polygon class="cls-1" points="1163.24 206.41 1146.66 246.4 1146.66 300.28 1163.24 328.11 1186.05 328.11 1206.79 310.63 1206.79 260.9 1196.42 218.8 1163.24 206.41"/><polygon class="cls-1" points="887.52 151.54 872.08 262.91 899.87 296.04 915.31 246.17 887.52 151.54"/><polygon class="cls-1" points="966.97 429.88 944.02 502.13 955.49 541.4 966.97 574.39 986.78 529.93 986.78 482.12 966.97 429.88"/><polygon class="cls-1" points="1046.45 645.99 1023.5 718.24 1034.97 757.5 1046.45 790.49 1066.26 746.03 1066.26 698.22 1046.45 645.99"/><polygon class="cls-1" points="1181.85 564.45 1163.89 610.02 1167.98 675.45 1201.66 700.29 1209.96 644.08 1209.96 610.62 1181.85 564.45"/><path class="cls-1" d="M863.91,610.6l-16.2,61.21q5.1,30.87,10.18,61.74l19.9,11,17.68-43,4.69-47.9Z"/><polygon class="cls-1" points="1267.49 429.07 1252.05 540.45 1279.84 573.58 1295.28 523.71 1267.49 429.07"/><polygon class="cls-1" points="725.53 560.26 702.55 637.86 743.92 660.94 766.9 626.19 725.53 560.26"/><polygon class="cls-1" points="1167.53 777.26 1144.55 854.86 1185.91 877.94 1208.9 843.19 1167.53 777.26"/><polygon class="cls-1" points="737.1 164.54 702.34 236.79 719.72 276.06 737.1 309.04 767.12 264.58 767.12 216.78 737.1 164.54"/><polygon class="cls-1" points="937.84 777.26 922.4 888.63 950.2 921.76 965.64 871.89 937.84 777.26"/></svg>