<svg id="Layer_8" data-name="Layer 8" xmlns="http://www.w3.org/2000/svg" viewBox="0 0 2000 2000"><defs><style>.cls-1{fill:#231f20;stroke:#231f20;stroke-miterlimit:10;}</style></defs><title>window-fill</title><polygon class="cls-1" points="654.5 419.46 883.82 419.46 726.31 524.72 654.5 600.04 606.34 699.45 597.95 726.81 606.34 1337.6 654.5 1425.38 708.28 1499.16 801.06 1561.85 898.86 1607.2 1066.81 1621.49 1174.06 1607.2 1307.78 1555.98 1427.97 1471.58 1500.69 1358.73 1518.39 1226.08 1525.76 1057.52 1525.76 879.75 1518.39 757.13 1498.19 674.15 1444.56 590.5 1375.85 519.11 1307.78 463.51 1212.09 419.46 1453.31 419.46 1525.76 492.73 1585.6 582.7 1618.55 671.64 1628.84 792.01 1626.38 951.8 1618.55 1351.21 1588.46 1451.52 1525.76 1549.64 1444.56 1628.1 1356.56 1684.95 1224.02 1737.36 1102.28 1758.94 969.08 1758.94 851.87 1730.33 749.22 1686.17 654 1621.78 565.35 1529.26 510.18 1443.99 490.12 1371.27 490.12 689.2 528.73 572.21 580.39 491.09 654.5 419.46"/></svg>