<!-- https://www.redbubble.com/people/hailstef/works/33058436-green-tumblr-cactus -->
<svg aria-hidden="true" style="position: absolute; width: 0; height: 0; overflow: hidden;" version="1.1" xmlns="http://www.w3.org/2000/svg" xmlns:xlink="http://www.w3.org/1999/xlink">
    <defs>
        <symbol id="pot-outline" viewBox="0 0 2000 2000">
            <polyline style="stroke:#2e586f;" points="713.69 338.44 564.92 207.16 436.16 302.36"/>
            <polyline style="stroke:#23495d;" points="155.89 161.57 176.95 272.8 176.95 439.2 95.37 598.41 113.17 692.94 334.44 834.02 324.05 749.38 211.3 461.72 208.22 453.86 177.6 451.06"/>
            <polyline style="stroke:#173739;;" points="211.3 461.72 423.4 311.4 719.04 350.87"/>
            <polyline style="stroke:#173739;" points="334.44 834.02 683.28 814.85 819.71 566.92"/>
            <line style="stroke:#2e2534;" x1="932.81" y1="650.09" x2="667.94" y2="815.69"/>
            <line style="stroke:#2e2534;" x1="977.24" y1="135.17" x2="976.64" y2="310.44"/>
            <polyline style="stroke:#2e2534;" points="265.08 10 11.34 369.13 76.24 526.75 95.37 598.41"/>
            <polyline style="stroke:#2e586f;" points="334.44 10 265.08 10 265.08 55.32 385.93 133.01 552.1 208.54 813.23 180.49 890.91 150.27 977.24 135.17 949.18 96.32 888.76 96.32 841.11 162.21 838.88 165.3 713.69 338.44 808.64 558.78 932.81 650.09 1038.72 460.18 1038.72 428.53 976.64 310.44 833.16 158.65"/>
        </symbol>

        <symbol id="pot-fill" viewBox="0 0 2000 2000">
            <polygon style="fill:#7a9fc1;" points="287.04 9.76 262.79 61.07 535.13 206.91 206.2 439.18 165.78 439.18 165.78 258.23 146.92 158.3 241.23 9.76 287.04 9.76"/>
            <polygon style="fill:#2b99c2;" points="147.59 146.92 0 360.39 73.8 584.41 168.67 434.19 168.67 257.61 147.59 146.92"/>
            <path style="fill:#44c3e9;" d="M1010.38,1097.75l168.64,145-295.64-39.47Z" transform="translate(-472.09 -901.87)"/>
            <polygon style="fill:#239bcc;" points="542.24 195.88 689.83 322.38 805.79 177.43 542.24 195.88"/>
            <path style="fill:#b2d5d7;" d="M685.25,1335.31l198.13-132L1179,1242.74l98.86,226.62-131.77,229.29-335.95,21.08q-69.45-183.06-138.89-366.14Z" transform="translate(-472.09 -901.87)"/>
            <polygon style="fill:#42c2ea;" points="171.66 439.18 196.02 442.98 323.63 812.85 98.32 688.23 76.79 589.4 171.66 439.18"/>
            <polygon style="fill:#42c2e5;" points="806.88 177.43 833.51 159.53 961.66 301.3 1027.77 441.4 930.23 631.07 806.88 567.49 690.91 322.38 806.88 177.43"/>
            <polygon style="fill:#c8ded2;" points="845.69 177.43 965.99 301.3 965.99 132.5 856.53 159.6 845.69 177.43"/>
            <polygon style="fill:#94afd0;" points="806.88 570.55 674.01 799.85 923.72 647.14 806.88 570.55"/>
            <polygon style="fill:#18304b;" points="872.16 92.53 821.96 162.65 974.56 121.4 945.72 92.53 872.16 92.53"/>
            <polygon style="fill:#18304b;" points="241.23 9.76 315.32 0 306.11 73.65 262.79 61.07 241.23 9.76"/>
        </symbol>

        <symbol id="cactus-outline" viewBox="0 0 2000 2000">
            <path d="M1099.4,324.1s60.83,34,107.46,146.25,49.79,206,49.79,206L1268,1056.89l25.15-6.37,24.28-39.39s-19.79-196.07-20.57-327.26-4.61-91.6-22.06-212.27c-38.27-115-162.91-147.5-162.91-147.5l-48.82,11.95L1000,330.62c-90.75,59-86.79,118.43-86.79,118.43L855.54,613.64,787.41,964.81l153.91,88.63,13.5-301.69,54.73-286.53,53.51-129.17" transform="translate(-776.24 -313.78)"/>
            <polyline points="165.08 739.65 235.71 778.9 491.75 743.11"/>
            <path d="M1092.7,332.4s39.87,163.22,45,372.1,6.71,366.47,6.71,366.47" transform="translate(-776.24 -313.78)"/>
        </symbol>

        <symbol id="cactus-bg" viewBox="0 0 2000 2000">
            <path d="M787.41,980.36l213.53,119.75L1317.42,1051,1291.9,595.62s27.48-214-188.45-265c-78.52,13.74-80.48,0-80.48,0S930.71,340.43,860,591.69C805.08,858.66,787.41,980.36,787.41,980.36Z" transform="translate(-787.41 -330.62)"/>
        </symbol>

        <symbol id="cactus-fill" viewBox="0 0 2000 2000">
            <path style="fill:#466a4a;" d="M1011.94,1092.69l132.5-8.65s0-643.75-41.77-741.68l-28.8-4.32S1035.77,438.3,1027,502.39C1021.2,598.53,1008.51,864.35,1011.94,1092.69Z" transform="translate(-787.41 -330.62)"/>
            <path style="fill:#466a4a;" d="M1176.48,1071l91.51-14.08-8.8-353.71s-15.84-256.9-139-365.14c0,0,35.19,136.37,42.23,256S1176.48,1071,1176.48,1071Z" transform="translate(-787.41 -330.62)"/>
            <path style="fill:#466a4a;" d="M836.84,1013.25,940.67,1071l10.56-286.84s28.15-295.65,103.83-438.19l-35.2-3.52s-79.19,86.23-126.7,269.25C859.72,835.16,872,714.44,836.84,1013.25Z" transform="translate(-787.41 -330.62)"/>
        </symbol>

        <symbol id="dots" viewBox="0 0 2000 2000">
            <polygon style="fill:#cae5c4;" points="308.88 415.42 289.52 427.26 283.07 452 295.98 472.44 318.56 467.06 318.56 443.93 308.88 415.42"/>
            <polygon style="fill:#cae5c4;" points="288.27 321.64 278.18 341.83 283.07 360.89 291.12 368.13 304.19 355.6 304.19 344.89 296.56 325.09 288.27 321.64"/>
            <polygon style="fill:#cae5c4;" points="291.18 211.74 283.07 230.51 283.07 251 291.18 254.41 300.82 243.32 300.82 224.54 291.18 211.74"/>
            <polygon style="fill:#cae5c4;" points="300.82 534.4 283.07 549.93 283.07 565.19 291.18 583 300.82 583 318.56 575.37 315.38 555.65 310.93 541.03 300.82 534.4"/>
            <polygon style="fill:#cae5c4;" points="296.94 649.77 283.07 663.76 278.18 680.92 287.56 700.64 304.19 708.9 318.56 687.28 318.56 677.32 318.56 663.76 307.12 654.22 296.94 649.77"/>
            <polygon style="fill:#cae5c4;" points="389.77 148.11 389.77 174.59 396.8 193.5 414.63 197.82 423.28 181.07 413.01 161.08 401.66 152.97 389.77 148.11"/>
            <polygon style="fill:#cae5c4;" points="414.85 254.41 414.85 278.45 423.28 293.73 435.94 293.73 443.94 286.45 443.94 274.07 433.76 260.27 423.28 250.09 414.85 254.41"/>
            <polygon style="fill:#cae5c4;" points="429.4 363.63 429.4 409.48 443.94 415.42 456.71 402.69 456.71 382.31 429.4 363.63"/>
            <polygon style="fill:#cae5c4;" points="434.63 488.45 434.63 508.83 443.05 528.36 452.46 539.4 466.89 534.4 466.89 513.93 456.71 496.1 434.63 488.45"/>
            <polygon style="fill:#cae5c4;" points="450.76 597.99 438.02 613.41 438.02 632.81 443.05 662.53 453.31 662.53 466.89 644.7 475.39 623.47 471.14 605.63 450.76 597.99"/>
            <polygon style="fill:#cae5c4;" points="123.17 461.57 110.08 481.71 110.08 507.89 116.62 517.97 129.21 499.84 135.25 478.69 135.25 465.6 123.17 461.57"/>
            <polygon style="fill:#cae5c4;" points="135.25 351.81 131.22 374.97 131.22 389.53 139.28 399.14 146.33 385.04 152.37 356.84 135.25 351.81"/>
            <polygon style="fill:#cae5c4;" points="163.45 250.09 152.37 267.22 157.91 282.32 170.5 271.91 170.5 259.16 163.45 250.09"/>
            <polygon style="fill:#cae5c4;" points="101.01 583 92.96 613.41 92.96 630.26 110.08 630.26 110.08 613.41 118.13 590.47 101.01 583"/>
            <polygon style="fill:#addacc;" points="19.03 543.82 0 565.89 3.81 597.99 9.52 606.63 19.03 543.82"/>
            <polygon style="fill:#addacc;" points="39.58 447.15 12.94 472.44 9.52 492.82 19.03 513.93 31.97 508.8 39.58 480.54 39.58 447.15"/>
            <polygon style="fill:#addacc;" points="68.51 316.22 39.58 342.1 36.54 368.13 43.39 389.53 52.52 385.49 68.51 338.29 68.51 316.22"/>
            <polygon style="fill:#addacc;" points="112.66 172.97 92.96 186.81 81.45 204.32 87.54 222.59 97.05 229.44 112.66 172.97"/>
            <polygon style="fill:#607d74;" points="503.54 166.35 515.23 216.33 528.86 201.21 528.86 187.77 521.72 176.09 503.54 166.35"/>
            <polygon style="fill:#607d74;" points="516.2 276.7 522.37 333.18 541.84 321.64 541.84 300.72 536 287.09 516.2 276.7"/>
            <polygon style="fill:#607d74;" points="528.86 399.14 528.86 443.93 541.84 428.61 541.84 409.21 541.84 399.14 528.86 399.14"/>
            <polygon style="fill:#607d74;" points="528.86 507.98 529.02 568.83 550.85 544.14 550.85 528.26 541.84 513.93 528.86 507.98"/>
            <polygon style="fill:#607d74;" points="535.35 630.26 535.35 693.18 550.85 679.34 563.2 662.53 557.03 644.68 549.27 633.21 535.35 630.26"/>
            <polygon style="fill:#addacc;" points="135.25 121.7 166.34 83.78 150.79 80.25 135.25 97.01 135.25 121.7"/>
            <polygon style="fill:#addacc;" points="198.97 37.92 236.01 7.94 217.49 0 198.97 7.94 191.03 24.69 191.03 43.21 198.97 37.92"/>
        </symbol>


        <symbol id="water" viewBox="0 0 2000 2000">
                <path class="cls-1" d="M1014.79,182.54q-10,36.09-20,72.18,6.72,36.53,13.43,73L1033.52,341l22.06-50.64,5.53-56.55Z"/>
                <polygon class="cls-1" points="814.86 358.44 793.88 406.37 798.66 475.19 838.01 501.33 847.71 442.2 847.71 407 814.86 358.44"/>
                <polygon class="cls-1" points="1108.87 387.3 1093.43 498.68 1121.22 531.81 1136.66 481.94 1108.87 387.3"/>
                <polygon class="cls-1" points="1163.24 206.41 1146.66 246.4 1146.66 300.28 1163.24 328.11 1186.05 328.11 1206.79 310.63 1206.79 260.9 1196.42 218.8 1163.24 206.41"/>
                <polygon class="cls-1" points="887.52 151.54 872.08 262.91 899.87 296.04 915.31 246.17 887.52 151.54"/>
                <polygon class="cls-1" points="966.97 429.88 944.02 502.13 955.49 541.4 966.97 574.39 986.78 529.93 986.78 482.12 966.97 429.88"/>
                <polygon class="cls-1" points="1046.45 645.99 1023.5 718.24 1034.97 757.5 1046.45 790.49 1066.26 746.03 1066.26 698.22 1046.45 645.99"/>
                <polygon class="cls-1" points="1181.85 564.45 1163.89 610.02 1167.98 675.45 1201.66 700.29 1209.96 644.08 1209.96 610.62 1181.85 564.45"/>
                <path class="cls-1" d="M863.91,610.6l-16.2,61.21q5.1,30.87,10.18,61.74l19.9,11,17.68-43,4.69-47.9Z"/>
                <polygon class="cls-1" points="1267.49 429.07 1252.05 540.45 1279.84 573.58 1295.28 523.71 1267.49 429.07"/>
                <polygon class="cls-1" points="725.53 560.26 702.55 637.86 743.92 660.94 766.9 626.19 725.53 560.26"/>
                <polygon class="cls-1" points="1167.53 777.26 1144.55 854.86 1185.91 877.94 1208.9 843.19 1167.53 777.26"/>
                <polygon class="cls-1" points="737.1 164.54 702.34 236.79 719.72 276.06 737.1 309.04 767.12 264.58 767.12 216.78 737.1 164.54"/>
                <polygon class="cls-1" points="937.84 777.26 922.4 888.63 950.2 921.76 965.64 871.89 937.84 777.26"/>
        </symbol>

    </defs>
</svg>