<svg aria-hidden="true" style="position: absolute; width: 0; height: 0; overflow: hidden;" version="1.1" xmlns="http://www.w3.org/2000/svg" xmlns:xlink="http://www.w3.org/1999/xlink">
    <defs>
        <symbol id="window-outline" viewBox="0 0 2000 2000">
            <path class="cls-1" style="fill:none; stroke: #6e4b5b; stroke-width: 35;" d="M497.4,667.23c27.88-191.38,278-389.09,537-398.55,274.68-10,530.15,187.57,583.68,398.8,5.2,20.52,11.82,58.79,10.56,134.7-4.89,294.77-5.44,501.38-16.8,567.64-35.38,206.39-269.59,382-543.11,391.07S567.53,1604.11,500.28,1405.4c0,0-12.6-23.74-12.55-122.54C488,760,486.36,743.06,497.4,667.23Z"/>
            <path class="cls-1" style="fill:none; stroke: #6e4b5b; stroke-width: 35;" d="M654.5,419.46h798.81"/>
            <line class="cls-1" style="fill:none; stroke: #6e4b5b; stroke-width: 35;" x1="955.19" y1="349.12" x2="1157.64" y2="349.12"/>
            <path class="cls-1" style="fill:none; stroke: #6e4b5b; stroke-width: 35;" d="M1517.61,742.84c1.29,23.07,3.05,57.42,4.5,99.06,8.88,255,.46,379.23-13.66,461.59-28.77,167.82-219.23,310.67-441.64,318S659.22,1494,604.53,1332.42c0,0-2.56-4.83-4.6-78.58-1.93-69.82-15.29-238.43-1.48-492.11.84-15.35,1.2-23,1.52-26.13,11.89-118.48,106-194.38,141.49-223.42,69.74-57,142.69-81.5,191.67-92.72"/>
            <path class="cls-1" style="fill:none; stroke: #6e4b5b; stroke-width: 35;" d="M1518.39,745.94c-10.6-42.11-34.43-111.4-91.48-177.25C1316.26,441,1164.42,422.89,1126.19,419.46"/>
        </symbol>

        <symbol id="window-fill" viewBox="0 0 2000 2000">
            <polygon class="cls-1" style="fill:#e3dab8; stroke:none;" points="654.5 419.46 883.82 419.46 726.31 524.72 654.5 600.04 606.34 699.45 597.95 726.81 606.34 1337.6 654.5 1425.38 708.28 1499.16 801.06 1561.85 898.86 1607.2 1066.81 1621.49 1174.06 1607.2 1307.78 1555.98 1427.97 1471.58 1500.69 1358.73 1518.39 1226.08 1525.76 1057.52 1525.76 879.75 1518.39 757.13 1498.19 674.15 1444.56 590.5 1375.85 519.11 1307.78 463.51 1212.09 419.46 1453.31 419.46 1525.76 492.73 1585.6 582.7 1618.55 671.64 1628.84 792.01 1626.38 951.8 1618.55 1351.21 1588.46 1451.52 1525.76 1549.64 1444.56 1628.1 1356.56 1684.95 1224.02 1737.36 1102.28 1758.94 969.08 1758.94 851.87 1730.33 749.22 1686.17 654 1621.78 565.35 1529.26 510.18 1443.99 490.12 1371.27 490.12 689.2 528.73 572.21 580.39 491.09 654.5 419.46"/>
            <polygon class="cls-1" style="fill:white; stroke: none;" points="687.91 416.79 1443.01 416.79 1316.17 334.54 1117.65 280.12 946.05 287.71 810.91 328.71 721.31 380.34 687.91 416.79"/>
        </symbol>

        <symbol id="sky" viewBox="0 0 2000 2000">
            <polygon class="cls-1" points="883.06 435.32 1235.79 435.32 1348.46 500.58 1467.46 618.61 1512.46 735.67 1503.35 1350.67 1401.61 1488.86 1263.37 1587.49 1094.87 1617.93 905.05 1602.75 713.75 1491.88 621.21 1340.81 607.93 1269.39 607.93 731.12 652.8 621.87 761.38 498.87 883.06 435.32"/>   
        </symbol>

        <symbol id="wing" viewBox="0 0 2000 2000">
            <polygon class="cls-1" style="fill:#e3dab8; stroke:none;" points="606.34 1337.61 1093.5 954.45 1224.02 954.45 938.49 1609.73 841.24 1577.68 756.87 1529.42 689.59 1470.85 639.4 1405.82 606.34 1337.61"/>
            <polygon class="cls-1" style="fill:#cfbc9b; stroke:none;" points="1094.98 948.51 618.15 1323.32 644.76 1416.47 713.51 1496.31 766.74 1529.58 1159.3 948.51 1094.98 948.51"/>
            <polygon class="cls-1" style="fill:#cfbc9b; stroke:none;" points="1139.34 1141.46 1216.96 1141.46 1178.15 1281.18 1079.45 1281.18 1139.34 1141.46"/>
            <polygon class="cls-1" style="fill:none; stroke: #6e4b5b; stroke-width: 35;" points="606.34 1337.61 1093.5 954.45 1224.02 954.45 938.49 1609.73 841.24 1577.68 756.87 1529.42 689.59 1470.85 639.4 1405.82 606.34 1337.61"/>
            <line class="cls-1" style="fill: none; stroke: #6e4b5b; stroke-width: 35;" x1="1009.37" y1="1020.62" x2="1195.19" y2="1020.62"/>
            <polyline class="cls-1" style="fill:none; stroke: #6e4b5b; stroke-width: 35;" points="1143.05 1140.27 1212.09 1140.27 1171.03 1282.09 1081.26 1282.09"/>
        </symbol>

        <symbol id="cloud1" viewBox="0 0 2000 2000">
            <path class="cls-1" style="fill:#f0f6ff; stroke: #6e4b5b; stroke-width: 35;" d="M630.83,855.56c45.54-120,159.36-196.38,275.38-189.91,141.52,7.88,263.64,137.75,261.13,299.11,66.73-40.69,149.17-40.71,208.9,0,75.34,51.35,103,159.61,57,251.64,68.25-32.16,148.08-20.39,199.41,28.49,60.8,57.89,70.82,157.54,19,232.64l-1149,4.75c-97.22-.78-173.43-76.41-175.67-161.42-1.84-69.47,45.94-136.27,118.69-161.43C403,1100.3,395.49,1023.3,426.67,960,462.94,886.41,545.57,843.56,630.83,855.56Z"/>
        </symbol>

        <symbol id="cloud2" viewBox="0 0 2000 2000">
            <path class="cls-1" style="fill:#f0f6ff; stroke: #6e4b5b; stroke-width: 35;" d="M723.19,850.82c32-117.38,139.47-199.41,261.14-199.41s229.09,82,261.13,199.41c57-24,121.22-12.39,161.43,28.48,46.09,46.86,39,110.33,38,118.7,72.72,5.65,133.81,55.73,151.93,123.44,20.2,75.48-17,157.85-90.21,194.67l-109.2-4.75c-10.26,10.52-48.52,47.21-109.2,52.23-81.76,6.75-135.68-49.66-142.44-57-8.3,10.15-59.09,70.13-147.18,76-84.81,5.62-141.65-43.09-151.93-52.23-11.51,9.08-65.27,49.47-142.44,42.73-72.82-6.36-117.39-50.41-128.19-61.72-96,41.84-200.91-13.15-223.15-95-22.07-81.2,39.44-181,142.44-194.66-.28-7.45-2.07-93.56,66.47-142.44,40.61-29,84-29.18,99.7-28.48Z"/>
        </symbol>

    </defs>
</svg>