<svg aria-hidden="true" style="position: absolute; width: 0; height: 0; overflow: hidden;" version="1.1" xmlns="http://www.w3.org/2000/svg" xmlns:xlink="http://www.w3.org/1999/xlink">
    <defs>
        <symbol id="window-outline" viewBox="0 0 2000 2000">
            <path style="fill:none; stroke: #6e4b5b; stroke-width: 35;" d="M497.4,667.23c27.88-191.38,278-389.09,537-398.55,274.68-10,530.15,187.57,583.68,398.8,5.2,20.52,11.82,58.79,10.56,134.7-4.89,294.77-5.44,501.38-16.8,567.64-35.38,206.39-269.59,382-543.11,391.07S567.53,1604.11,500.28,1405.4c0,0-12.6-23.74-12.55-122.54C488,760,486.36,743.06,497.4,667.23Z"/>
            <path style="fill:none; stroke: #6e4b5b; stroke-width: 35;" d="M654.5,419.46h798.81"/>
            <line style="fill:none; stroke: #6e4b5b; stroke-width: 35;" x1="955.19" y1="349.12" x2="1157.64" y2="349.12"/>
            <path style="fill:none; stroke: #6e4b5b; stroke-width: 35;" d="M1517.61,742.84c1.29,23.07,3.05,57.42,4.5,99.06,8.88,255,.46,379.23-13.66,461.59-28.77,167.82-219.23,310.67-441.64,318S659.22,1494,604.53,1332.42c0,0-2.56-4.83-4.6-78.58-1.93-69.82-15.29-238.43-1.48-492.11.84-15.35,1.2-23,1.52-26.13,11.89-118.48,106-194.38,141.49-223.42,69.74-57,142.69-81.5,191.67-92.72"/>
            <path style="fill:none; stroke: #6e4b5b; stroke-width: 35;" d="M1518.39,745.94c-10.6-42.11-34.43-111.4-91.48-177.25C1316.26,441,1164.42,422.89,1126.19,419.46"/>
        </symbol>

        <symbol id="window-fill" viewBox="0 0 2000 2000">
            <polygon style="fill:#e3dab8; stroke:none;" points="654.5 419.46 883.82 419.46 726.31 524.72 654.5 600.04 606.34 699.45 597.95 726.81 606.34 1337.6 654.5 1425.38 708.28 1499.16 801.06 1561.85 898.86 1607.2 1066.81 1621.49 1174.06 1607.2 1307.78 1555.98 1427.97 1471.58 1500.69 1358.73 1518.39 1226.08 1525.76 1057.52 1525.76 879.75 1518.39 757.13 1498.19 674.15 1444.56 590.5 1375.85 519.11 1307.78 463.51 1212.09 419.46 1453.31 419.46 1525.76 492.73 1585.6 582.7 1618.55 671.64 1628.84 792.01 1626.38 951.8 1618.55 1351.21 1588.46 1451.52 1525.76 1549.64 1444.56 1628.1 1356.56 1684.95 1224.02 1737.36 1102.28 1758.94 969.08 1758.94 851.87 1730.33 749.22 1686.17 654 1621.78 565.35 1529.26 510.18 1443.99 490.12 1371.27 490.12 689.2 528.73 572.21 580.39 491.09 654.5 419.46"/>
            <polygon style="fill:white; stroke: none;" points="687.91 416.79 1443.01 416.79 1316.17 334.54 1117.65 280.12 946.05 287.71 810.91 328.71 721.31 380.34 687.91 416.79"/>
        </symbol>

        <symbol id="sky" viewBox="0 0 2000 2000">
            <polygon points="883.06 435.32 1235.79 435.32 1348.46 500.58 1467.46 618.61 1512.46 735.67 1503.35 1350.67 1401.61 1488.86 1263.37 1587.49 1094.87 1617.93 905.05 1602.75 713.75 1491.88 621.21 1340.81 607.93 1269.39 607.93 731.12 652.8 621.87 761.38 498.87 883.06 435.32"/>   
        </symbol>

        <symbol id="wing" viewBox="0 0 2000 2000">
            <polygon style="fill:#e3dab8; stroke:none;" points="606.34 1337.61 1093.5 954.45 1224.02 954.45 938.49 1609.73 841.24 1577.68 756.87 1529.42 689.59 1470.85 639.4 1405.82 606.34 1337.61"/>
            <polygon style="fill:#cfbc9b; stroke:none;" points="1094.98 948.51 618.15 1323.32 644.76 1416.47 713.51 1496.31 766.74 1529.58 1159.3 948.51 1094.98 948.51"/>
            <polygon style="fill:#cfbc9b; stroke:none;" points="1139.34 1141.46 1216.96 1141.46 1178.15 1281.18 1079.45 1281.18 1139.34 1141.46"/>
            <polygon style="fill:none; stroke: #6e4b5b; stroke-width: 35;" points="606.34 1337.61 1093.5 954.45 1224.02 954.45 938.49 1609.73 841.24 1577.68 756.87 1529.42 689.59 1470.85 639.4 1405.82 606.34 1337.61"/>
            <line style="fill: none; stroke: #6e4b5b; stroke-width: 35;" x1="1009.37" y1="1020.62" x2="1195.19" y2="1020.62"/>
            <polyline style="fill:none; stroke: #6e4b5b; stroke-width: 35;" points="1143.05 1140.27 1212.09 1140.27 1171.03 1282.09 1081.26 1282.09"/>
        </symbol>

        <symbol id="cloud1" viewBox="0 0 2000 2000">
            <path style="fill:#f0f6ff; stroke: #6e4b5b; stroke-width: 35;" d="M630.83,855.56c45.54-120,159.36-196.38,275.38-189.91,141.52,7.88,263.64,137.75,261.13,299.11,66.73-40.69,149.17-40.71,208.9,0,75.34,51.35,103,159.61,57,251.64,68.25-32.16,148.08-20.39,199.41,28.49,60.8,57.89,70.82,157.54,19,232.64l-1149,4.75c-97.22-.78-173.43-76.41-175.67-161.42-1.84-69.47,45.94-136.27,118.69-161.43C403,1100.3,395.49,1023.3,426.67,960,462.94,886.41,545.57,843.56,630.83,855.56Z"/>
        </symbol>

        <symbol id="cloud2" viewBox="0 0 2000 2000">
            <path style="fill:#f0f6ff; stroke: #6e4b5b; stroke-width: 35;" d="M723.19,850.82c32-117.38,139.47-199.41,261.14-199.41s229.09,82,261.13,199.41c57-24,121.22-12.39,161.43,28.48,46.09,46.86,39,110.33,38,118.7,72.72,5.65,133.81,55.73,151.93,123.44,20.2,75.48-17,157.85-90.21,194.67l-109.2-4.75c-10.26,10.52-48.52,47.21-109.2,52.23-81.76,6.75-135.68-49.66-142.44-57-8.3,10.15-59.09,70.13-147.18,76-84.81,5.62-141.65-43.09-151.93-52.23-11.51,9.08-65.27,49.47-142.44,42.73-72.82-6.36-117.39-50.41-128.19-61.72-96,41.84-200.91-13.15-223.15-95-22.07-81.2,39.44-181,142.44-194.66-.28-7.45-2.07-93.56,66.47-142.44,40.61-29,84-29.18,99.7-28.48Z"/>
        </symbol>

        <symbol id="chair" viewBox="0 0 2000 2000">
            <polygon style="fill:#c3e5da;" points="1377.2 192.56 1377.2 347.33 1436.73 469.37 1424.82 573.54 1296.89 1000 1323.62 1020.01 1343.53 1053.54 1394.52 921.75 1449.07 902.05 1545.61 821.03 1611.08 476.05 1613.59 153.73 1484.35 127.07 1377.2 192.56"/>
            <polygon style="fill:#abb1d9;" points="647.97 1000 606.3 1115.26 826.18 1133.37 975.38 1100.38 1097.41 1088.47 1136.11 1118.23 1290.88 1109.3 1341.48 1136.09 1317.68 1272.8 1290.88 1341.47 1290.88 1375.01 1331.57 1375.01 1380.18 1223.92 1367.92 1094.61 1323.62 1020.01 647.97 1000"/>
            <polygon style="fill:#c3e5da;" points="576.93 1225.42 548 1257.64 1150.99 1267.06 1195.64 1237.29 1149.61 1225.42 576.93 1225.42"/>
            <polygon style="fill:#abb1d9;" points="548 1363.39 548 1400.14 657.52 1489.2 820.09 1578.26 1023.65 1586.74 1157.94 1537.26 1230.04 1455.17 915.22 1375.01 548 1363.39"/>
            <polygon style="fill:#6f9595;" points="1394.52 921.75 1343.53 1053.54 1387.14 1115.2 1449.07 902.05 1394.52 921.75"/>
            <polygon style="fill:#6f9595;" points="548 1257.64 1150.99 1267.06 1195.64 1237.29 1241.71 1165.51 1241.71 1123.03 1290.88 1109.3 1341.48 1136.09 1343.53 1216.46 1290.88 1341.47 528.91 1323.61 525.11 1295.39 548 1257.64"/>
            <polygon style="fill:#fff;" points="528.91 1323.61 548 1363.39 1000 1396.6 1230.04 1455.17 1212.57 1475.06 1290.88 1479.3 1290.88 1427 1317.68 1375.01 1281.08 1375.01 1266.22 1341.08 528.91 1323.61"/>
            
            <polyline style="fill:none;stroke:#6e4c5d;stroke-miterlimit:10;stroke-width:20px;" points="1290.88 1020.01 1433.75 543.78 1436.73 469.37 1424.82 436.63 1377.2 347.33 1377.2 261.01 1377.2 192.56 1484.35 127.07 1573.65 138.98 1613.59 153.73 1623.66 224.24 1611.08 476.05 1568.27 483.6 1492.72 823.54"/>
            <polyline style="fill:none;stroke:#6e4c5d;stroke-miterlimit:10;stroke-width:20px;" points="1241.71 1115.2 1241.71 1165.51 1204.94 1240.97 1150.99 1267.06 548 1257.64"/>
            <polyline style="fill:none;stroke:#6e4c5d;stroke-miterlimit:10;stroke-width:20px;" points="1343.53 1053.54 1394.52 921.75 1433.38 907.72 1457.27 899.09 1545.61 821.03 1611.08 476.05"/>
            <polyline style="fill:none;stroke:#6e4c5d;stroke-miterlimit:10;stroke-width:20px;" points="1258.54 1341.47 1290.88 1375.01 1331.57 1375.01 1380.18 1223.92 1380.18 1115.26 1375.77 1107.83 1323.62 1020.01 868.23 1000 647.97 1000 606.3 1115.26 859.3 1136.09 975.38 1100.38 1097.41 1088.47 1136.11 1118.23 1290.88 1109.3 1341.48 1136.09 1338.51 1219.43 1290.88 1341.47 528.91 1323.61 528.91 1284.91 570.58 1225.39 1162.89 1228.36 1195.64 1237.29"/>
            <line style="fill:none;stroke:#6e4c5d;stroke-miterlimit:10;stroke-width:20px;" x1="1449.07" y1="902.05" x2="1380.18" y2="1123.03"/>
            <polyline style="fill:none;stroke:#6e4c5d;stroke-miterlimit:10;stroke-width:20px;" points="528.91 1323.61 548 1400.14 657.52 1489.2 820.09 1578.26 1023.65 1586.74 1157.94 1537.26 1230.04 1455.17 1000 1402.97 865.32 1375.01 548 1363.39"/>
            <polyline style="fill:none;stroke:#6e4c5d;stroke-miterlimit:10;stroke-width:20px;" points="1317.68 1384.59 1290.88 1427 1114.12 1384.59 851.19 1375.01"/>
            <polyline style="fill:none;stroke:#6e4c5d;stroke-miterlimit:10;stroke-width:20px;" points="1213.93 1473.51 1290.88 1479.3 1290.88 1427"/>
            <polyline style="fill:none;stroke:#6e4c5d;stroke-miterlimit:10;stroke-width:20px;" points="708.19 1516.96 715.48 1671.56 688.62 1787.47 647.63 1787.47 647.63 1903.39 738.1 1903.39 738.1 1838.36 738.1 1822.81 820.09 1578.26"/>
            <polyline style="fill:none;stroke:#6e4c5d;stroke-miterlimit:10;stroke-width:20px;" points="1114.12 1561.29 1170.66 1674.38 1131.08 1766.27 1077.37 1803.02 752.23 1803.02"/>
            <polyline style="fill:none;stroke:#6e4c5d;stroke-miterlimit:10;stroke-width:20px;" points="1170.66 1528.78 1213.93 1682.16 1163.6 1795.95 1091.5 1842.6 738.1 1838.36"/>
            <line style="fill:none;stroke:#6e4c5d;stroke-miterlimit:10;stroke-width:20px;" x1="826.18" y1="1595.54" x2="1131.08" y2="1766.27"/>
            ><polyline style="fill:none;stroke:#6e4c5d;stroke-miterlimit:10;stroke-width:20px;" points="1163.6 1795.95 1275.88 1878.54 1357.14 1878.54 1205.84 1728.63"/>
            <line style="fill:none;stroke:#6e4c5d;stroke-miterlimit:10;stroke-width:20px;" x1="1023.65" y1="1586.74" x2="1170.66" y2="1674.38"/>
        </symbol>

    </defs>
</svg>

